<?xml version="1.0" encoding="utf-8"?>
<!-- Generator: Adobe Illustrator 18.0.0, SVG Export Plug-In . SVG Version: 6.00 Build 0)  -->
<!DOCTYPE svg PUBLIC "-//W3C//DTD SVG 1.1//EN" "http://www.w3.org/Graphics/SVG/1.1/DTD/svg11.dtd">
<svg version="1.1" id="Layer_1" xmlns="http://www.w3.org/2000/svg" xmlns:xlink="http://www.w3.org/1999/xlink" x="0px" y="0px"
	 viewBox="0 553 612 239" enable-background="new 0 553 612 239" xml:space="preserve">
<g id="_x23_ffc200ff">
    <path fill="#fc5f2a" d="M302.3,572.1c11.1-2.9,23,6.6,22.8,17.9c0.1,37.5,0,75,0,112.6c0,14.1-3.9,28.4-11.8,40.2
		c-10.2,15-25.3,27-43,31.7c-12.8,3.3-26.6,3.3-39.4,0.1c-18.6-4.7-34.6-17.6-44.7-33.8c-9-14.6-11.9-32.4-9.7-49.3
		c4.1-32.2,31.9-59.8,64.3-63.1c5.4-0.5,11.3-1.4,16.5,0.7c7.1,3,12.3,10.4,11.7,18.2c-0.1,8.4-6.9,16.1-15.1,17.4
		c-3.7,0.6-7.6,0.2-11.3,1.1c-10.2,2-19.2,9-24.6,17.8c-5,8.1-6.1,18.2-4.1,27.4c2.2,9.8,8.9,18.2,17.3,23.4
		c7.8,4.8,17.6,6.2,26.6,4.4c16.3-3.1,29.6-18.6,29.7-35.4c0.1-37.8,0-75.6,0.1-113.4C287.7,581.6,294.2,573.8,302.3,572.1z"/>
    <path fill="#fc5f2a" d="M74.5,628.5c17-2.6,35-0.1,49.8,8.8c12.6,7.5,23.1,18.4,29.7,31.4c5.4,10.4,7.8,22.2,7.8,33.9
		c0,18.5,0,36.9,0,55.4c0.1,5.6-2.5,11.1-6.8,14.6c-4.8,4.2-11.8,5.3-17.8,3.4c-7.2-2.3-12.7-9.4-12.8-17.1
		c-0.1-19.4,0.1-38.7-0.1-58.1c-0.1-13.6-8.9-26.1-20.9-32.2c-8.2-4.2-18-4.8-26.8-2.4c-9.6,2.8-17.8,9.8-22.6,18.5
		c-6.3,11.6-5.7,26.8,1.7,37.8c5.7,8.4,14.7,14.8,24.7,16.3c4,0.7,8.1,0.2,12.1,1.4c7.8,2.5,13.8,10.4,13.2,18.6
		c-0.1,9.1-7.9,17.4-17.1,17.9c-15,0.5-30.3-3.6-42.6-12.1c-15.6-10.6-27.7-26.9-31.7-45.4c-3.8-17.6-1.8-36.7,6.9-52.6
		C32.2,646.9,52,631.8,74.5,628.5z"/>
    <path fill="#fc5f2a" d="M339,691.4c4-31.7,31-59,62.7-63c15.9-2.1,32.6,0.1,46.7,7.9c7.8,4.2,14.5,10.1,20.4,16.4
		c10-11.3,23.2-19.8,37.9-23.2c19.1-4.3,40.1-1.8,56.9,8.7c16.3,10.3,29.4,26.7,33.8,45.7c2.8,10.9,2,22.2,2.1,33.3
		c-0.1,13.8,0.1,27.7-0.1,41.5c0,7.8-5.8,15-13.2,17.4c-3.8,1.1-7.9,1-11.7-0.3c-7.1-2.4-12.5-9.5-12.4-17.1
		c-0.1-19.4,0.1-38.8-0.1-58.2c-0.3-15-11.1-28.9-25.1-33.9c-10.3-3.4-22.4-2.4-31.7,3.6c-8.9,5.7-15.6,15.1-17.2,25.7
		c-0.7,4.2,0,8.7-1.7,12.7c-2.7,7-9.9,12.2-17.4,12c-7.9,0.3-15.4-5.3-17.9-12.7c-1.4-4.2-0.6-8.7-1.6-13c-1.8-10.5-9-19.8-18-25.3
		c-11.8-7-27.8-6.6-39.1,1.3c-10,6.7-16.8,18.3-16.7,30.5c0,18.2,0,36.4,0,54.5c0,3.2-0.2,6.6-1.5,9.5c-3,7.2-10.9,12.1-18.7,11.3
		c-9.2-0.4-17.1-8.7-17.1-17.9c-0.1-15.7,0-31.4,0-47.2C338.4,705.1,338.1,698.2,339,691.4z"/>
</g>
</svg>
